<?xml version="1.0" standalone="no"?>
<!DOCTYPE svg PUBLIC "-//W3C//DTD SVG 20010904//EN"
 "http://www.w3.org/TR/2001/REC-SVG-20010904/DTD/svg10.dtd">
<svg version="1.0" xmlns="http://www.w3.org/2000/svg"
 width="1200.000000pt" height="1200.000000pt" viewBox="0 0 1200.000000 1200.000000"
 preserveAspectRatio="xMidYMid meet">

<g transform="translate(0.000000,1200.000000) scale(0.100000,-0.100000)"
fill="#000000" stroke="none">
<path d="M5710 11434 c-1050 -53 -2029 -371 -2891 -940 -159 -105 -369 -261
-530 -394 -173 -145 -562 -536 -710 -715 -704 -851 -1130 -1825 -1275 -2909
-58 -435 -59 -1042 -4 -1461 116 -875 413 -1681 887 -2405 158 -241 468 -641
483 -623 3 4 17 33 30 63 128 296 403 581 845 877 304 203 972 573 1324 733
74 33 220 95 325 136 235 93 349 152 427 222 96 87 139 181 139 307 0 133 -50
244 -191 431 -318 417 -435 600 -600 939 -202 416 -303 743 -371 1205 -20 139
-22 191 -22 510 1 385 10 483 70 743 180 782 679 1371 1387 1637 487 183 1136
216 1645 84 302 -78 580 -215 822 -403 181 -140 396 -386 512 -586 164 -281
281 -620 332 -960 43 -286 46 -734 7 -1006 -54 -371 -172 -769 -337 -1134
-135 -301 -214 -432 -434 -721 -230 -303 -312 -437 -359 -589 -44 -140 -38
-311 14 -401 76 -131 302 -259 770 -437 390 -148 805 -340 1110 -512 560 -316
949 -686 1109 -1055 16 -36 32 -69 36 -73 4 -5 48 40 97 100 695 840 1137
1862 1267 2933 32 263 40 405 40 705 -1 323 -15 533 -54 810 -233 1616 -1155
3065 -2520 3958 -516 337 -1059 582 -1635 736 -343 92 -650 146 -1030 181
-125 11 -586 20 -715 14z"/>
</g>
</svg>
